<svg width="147" height="50" viewBox="0 0 147 50" fill="none" xmlns="http://www.w3.org/2000/svg">
<path d="M72.3633 26.9336H65.0508V34H61.7461V16.9375H73.2773V19.6211H65.0508V24.2617H72.3633V26.9336ZM76.6758 16.9375H86.543V19.5977H83.2148V31.3516H86.543V34H76.6758V31.3516H79.9219V19.5977H76.6758V16.9375ZM93.8906 31.3398H101.883V34H90.5859V16.9375H93.8906V31.3398ZM115.277 26.5234H108.27V31.3398H116.461V34H104.965V16.9375H116.426V19.6211H108.27V23.9219H115.277V26.5234ZM130.441 34H127.16L122.414 22.9961V34H119.098V16.9375H122.414L127.125 27.8945L127.137 16.9375H130.441V34ZM145.512 26.7227C145.512 27.457 145.445 28.1562 145.312 28.8203C145.18 29.4766 144.988 30.0859 144.738 30.6484C144.473 31.2109 144.145 31.7266 143.754 32.1953C143.363 32.6641 142.918 33.0547 142.418 33.3672C141.965 33.6406 141.465 33.8516 140.918 34C140.379 34.1562 139.797 34.2344 139.172 34.2344C138.508 34.2344 137.895 34.1484 137.332 33.9766C136.77 33.8047 136.258 33.5625 135.797 33.25C135.344 32.9219 134.938 32.5273 134.578 32.0664C134.219 31.5977 133.918 31.0703 133.676 30.4844C133.457 29.9453 133.289 29.3594 133.172 28.7266C133.062 28.0938 133.008 27.4258 133.008 26.7227V24.2383C133.008 23.4883 133.07 22.7773 133.195 22.1055C133.328 21.4336 133.52 20.8125 133.77 20.2422C134.012 19.7031 134.305 19.2148 134.648 18.7773C135 18.3398 135.402 17.9648 135.855 17.6523C136.301 17.3477 136.801 17.1133 137.355 16.9492C137.91 16.7852 138.512 16.7031 139.16 16.7031C139.816 16.7031 140.43 16.7891 141 16.9609C141.578 17.125 142.098 17.3633 142.559 17.6758C143.02 17.9727 143.422 18.332 143.766 18.7539C144.117 19.1758 144.418 19.6406 144.668 20.1484C144.941 20.7266 145.148 21.3594 145.289 22.0469C145.438 22.7344 145.512 23.4648 145.512 24.2383V26.7227ZM142.172 24.2148C142.172 23.7773 142.148 23.3633 142.102 22.9727C142.062 22.5742 141.996 22.207 141.902 21.8711C141.785 21.4492 141.629 21.0742 141.434 20.7461C141.238 20.4102 141.008 20.1367 140.742 19.9258C140.531 19.7695 140.293 19.6484 140.027 19.5625C139.77 19.4766 139.48 19.4336 139.16 19.4336C138.855 19.4336 138.578 19.4727 138.328 19.5508C138.086 19.6289 137.867 19.7422 137.672 19.8906C137.406 20.1094 137.18 20.3828 136.992 20.7109C136.812 21.0391 136.672 21.4219 136.57 21.8594C136.492 22.1953 136.434 22.5625 136.395 22.9609C136.363 23.3594 136.348 23.7773 136.348 24.2148V26.7227C136.348 27.1367 136.363 27.5352 136.395 27.918C136.426 28.3008 136.48 28.6562 136.559 28.9844C136.645 29.3984 136.77 29.7773 136.934 30.1211C137.105 30.457 137.305 30.7305 137.531 30.9414C137.742 31.1289 137.98 31.2734 138.246 31.375C138.52 31.4766 138.828 31.5273 139.172 31.5273C139.5 31.5273 139.801 31.4805 140.074 31.3867C140.348 31.293 140.59 31.1562 140.801 30.9766C141.066 30.7578 141.289 30.4844 141.469 30.1562C141.656 29.8203 141.805 29.4414 141.914 29.0195C142 28.6914 142.062 28.332 142.102 27.9414C142.148 27.5508 142.172 27.1445 142.172 26.7227V24.2148Z" fill="black"/>
<circle cx="25" cy="25" r="25" fill="black"/>
<rect width="8" height="8" transform="matrix(0.707989 -0.706223 0.707989 0.706223 25 30)" fill="#D8D8D8"/>
<rect width="8" height="8" transform="matrix(0.707989 -0.706223 0.707989 0.706223 13 30)" fill="#D8D8D8"/>
<rect width="8" height="8" transform="matrix(0.707989 -0.706223 0.707989 0.706223 25 18)" fill="#D8D8D8"/>
<rect width="8" height="8" transform="matrix(0.707989 -0.706223 0.707989 0.706223 13 18)" fill="#D8D8D8"/>
</svg>
